<?xml version="1.0" encoding="utf-8"?>
<!-- Generator: Adobe Illustrator 15.0.2, SVG Export Plug-In . SVG Version: 6.00 Build 0)  -->
<!DOCTYPE svg PUBLIC "-//W3C//DTD SVG 1.1//EN" "http://www.w3.org/Graphics/SVG/1.1/DTD/svg11.dtd">
<svg version="1.1" id="Layer_1" xmlns="http://www.w3.org/2000/svg" xmlns:xlink="http://www.w3.org/1999/xlink" x="0px" y="0px"
	 width="40px" height="40px" viewBox="0 0 40 40" enable-background="new 0 0 40 40" xml:space="preserve">
<g>
	<path d="M20,1.6c10.146,0,18.4,8.254,18.4,18.4c0,10.146-8.256,18.4-18.4,18.4C9.854,38.4,1.6,30.146,1.6,20
		C1.6,9.854,9.854,1.6,20,1.6 M20,0C8.954,0,0,8.954,0,20s8.954,20,20,20s20-8.954,20-20S31.046,0,20,0L20,0z"/>
</g>
<g>
	<path d="M69.619,45.15h5.196c1.028,0,1.796,0.043,2.301,0.129s0.958,0.265,1.356,0.536c0.398,0.272,0.73,0.634,0.998,1.087
		c0.266,0.451,0.398,0.959,0.398,1.521c0,0.607-0.164,1.167-0.492,1.675c-0.328,0.509-0.773,0.891-1.334,1.145
		c0.791,0.23,1.4,0.623,1.826,1.179s0.639,1.209,0.639,1.959c0,0.592-0.139,1.166-0.413,1.725c-0.274,0.56-0.65,1.006-1.126,1.339
		c-0.476,0.335-1.063,0.54-1.76,0.616c-0.438,0.048-1.492,0.077-3.166,0.089h-4.424V45.15z M72.244,47.314v3.005h1.721
		c1.021,0,1.657-0.015,1.905-0.044c0.448-0.053,0.802-0.209,1.06-0.466s0.386-0.595,0.386-1.015c0-0.402-0.111-0.729-0.333-0.98
		c-0.221-0.25-0.551-0.402-0.988-0.455c-0.26-0.031-1.008-0.045-2.242-0.045H72.244z M72.244,52.483v3.476h2.43
		c0.945,0,1.545-0.027,1.799-0.081c0.391-0.07,0.709-0.243,0.953-0.518c0.246-0.274,0.368-0.643,0.368-1.104
		c0-0.39-0.095-0.721-0.284-0.993c-0.188-0.271-0.461-0.47-0.818-0.594c-0.359-0.123-1.135-0.186-2.328-0.186H72.244z"/>
	<path d="M88.087,55.151l2.482,0.417c-0.319,0.91-0.822,1.604-1.512,2.079c-0.688,0.476-1.55,0.714-2.585,0.714
		c-1.636,0-2.849-0.535-3.634-1.604c-0.622-0.857-0.932-1.939-0.932-3.244c0-1.562,0.407-2.783,1.224-3.667
		c0.815-0.884,1.848-1.326,3.094-1.326c1.401,0,2.507,0.463,3.316,1.387c0.81,0.927,1.196,2.344,1.161,4.252h-6.241
		c0.018,0.74,0.219,1.314,0.604,1.726c0.383,0.41,0.862,0.616,1.436,0.616c0.39,0,0.719-0.107,0.984-0.319
		C87.75,55.967,87.951,55.625,88.087,55.151z M88.229,52.634c-0.018-0.722-0.204-1.27-0.558-1.646
		c-0.354-0.375-0.787-0.562-1.295-0.562c-0.544,0-0.993,0.197-1.348,0.594c-0.354,0.396-0.529,0.934-0.523,1.613H88.229z"/>
	<rect x="83.341" y="45.15" width="5.932" height="1.663"/>
</g>
<path fill-rule="evenodd" clip-rule="evenodd" d="M15.918,12.407c0.188,0,0.376,0,0.564,0c0.973,0.159,1.282,1.678,1.542,2.747
	c0.511,2.093,0.901,4.144,1.317,6.322c0.176,0.921,0.334,2.606,1.166,2.635c0.417,0.014,1.061-1.002,1.28-1.28
	c0.723-0.908,1.413-1.922,1.957-3.085c0.358-0.766,1.084-2.633-0.113-2.935c-0.491-0.125-2.202,0.318-2.371-0.302
	c-0.111-0.41,0.752-1.111,1.055-1.392c0.92-0.859,1.649-1.406,2.747-2.07c0.551-0.334,1.423-0.768,2.221-0.489
	c0.607,0.211,1.196,0.867,1.581,1.392c0.435,0.598,0.707,1.278,0.789,2.146c0,0.125,0,0.25,0,0.376
	c-0.096,1.449-0.922,2.703-1.655,3.763c-1.869,2.699-3.947,5.19-5.947,7.602c-0.446,0.539-0.799,1.134-1.241,1.468
	c-0.433,0.327-1.698,0.868-2.446,0.603c-0.778-0.276-1.264-1.524-1.656-2.409c-0.816-1.842-1.569-3.812-2.258-5.683
	c-0.352-0.955-0.764-1.975-0.978-3.011c-0.096-0.462-0.071-1.268-0.564-1.316c-0.402-0.04-0.76,0.479-0.979,0.714
	c-0.318,0.344-0.473,0.598-0.904,0.791c-0.203-0.527-0.721-0.875-0.677-1.505c0.036-0.515,0.554-0.966,0.903-1.356
	c0.404-0.449,0.777-0.813,1.129-1.165C13.369,13.978,14.373,12.69,15.918,12.407z"/>
</svg>
