<?xml version="1.0" encoding="utf-8"?>
<!-- Generator: Adobe Illustrator 15.0.2, SVG Export Plug-In . SVG Version: 6.00 Build 0)  -->
<!DOCTYPE svg PUBLIC "-//W3C//DTD SVG 1.1//EN" "http://www.w3.org/Graphics/SVG/1.1/DTD/svg11.dtd">
<svg version="1.1" id="Layer_1" xmlns="http://www.w3.org/2000/svg" xmlns:xlink="http://www.w3.org/1999/xlink" x="0px" y="0px"
	 width="40px" height="40px" viewBox="0 0 40 40" enable-background="new 0 0 40 40" xml:space="preserve">
<g>
	<path d="M20,1.6c10.146,0,18.4,8.254,18.4,18.4c0,10.146-8.255,18.4-18.4,18.4C9.854,38.4,1.6,30.146,1.6,20
		C1.6,9.854,9.854,1.6,20,1.6 M20,0C8.954,0,0,8.954,0,20s8.954,20,20,20s20-8.954,20-20S31.046,0,20,0L20,0z"/>
</g>
<path d="M25.087,27.267H14.914V11.281h10.173V27.267L25.087,27.267z M20,30.899c-0.936,0-1.695-0.543-1.695-1.211
	s0.76-1.211,1.695-1.211c0.937,0,1.695,0.543,1.695,1.211S20.937,30.899,20,30.899L20,30.899z M24.603,8.132h-9.204
	c-1.332,0-2.423,1.09-2.423,2.423v18.892c0,1.332,1.091,2.422,2.423,2.422h9.204c1.332,0,2.422-1.09,2.422-2.422V10.555
	C27.024,9.222,25.935,8.132,24.603,8.132L24.603,8.132z"/>
</svg>
