<?xml version="1.0" encoding="utf-8"?>
<!-- Generator: Adobe Illustrator 15.0.2, SVG Export Plug-In . SVG Version: 6.00 Build 0)  -->
<!DOCTYPE svg PUBLIC "-//W3C//DTD SVG 1.1//EN" "http://www.w3.org/Graphics/SVG/1.1/DTD/svg11.dtd">
<svg version="1.1" id="Layer_1" xmlns="http://www.w3.org/2000/svg" xmlns:xlink="http://www.w3.org/1999/xlink" x="0px" y="0px"
	 width="40px" height="40px" viewBox="0 0 40 40" enable-background="new 0 0 40 40" xml:space="preserve">
<g>
	<path fill="#FFFFFF" d="M20,1.6c10.146,0,18.4,8.254,18.4,18.4c0,10.146-8.256,18.4-18.4,18.4C9.854,38.4,1.6,30.146,1.6,20
		C1.6,9.854,9.854,1.6,20,1.6 M20,0C8.954,0,0,8.954,0,20s8.954,20,20,20s20-8.954,20-20S31.046,0,20,0L20,0z"/>
</g>
<path fill="#FFFFFF" d="M27.844,27.227H16.278v-1.658l1.78-4.14l2.669,3.313l2.504-2.566l3.219-1.163l1.395,3.106V27.227
	L27.844,27.227z M28.908,18.529H14.956c-0.406,0-0.734,0.348-0.734,0.773v9.085c0,0.426,0.329,0.772,0.734,0.772h13.952
	c0.406,0,0.734-0.347,0.734-0.772v-9.085C29.643,18.875,29.314,18.529,28.908,18.529L28.908,18.529z M26.871,16.789l-1.973-5.432
	c-0.146-0.401-0.572-0.614-0.953-0.475l-13.112,4.784c-0.381,0.14-0.572,0.578-0.427,0.979l2.08,5.73v-3.073
	c0-1.384,1.108-2.513,2.47-2.513h3.464l4.131-2.9l2.392,2.9L26.871,16.789L26.871,16.789z"/>
</svg>
