<?xml version="1.0" encoding="utf-8"?>
<!-- Generator: Adobe Illustrator 15.0.2, SVG Export Plug-In . SVG Version: 6.00 Build 0)  -->
<!DOCTYPE svg PUBLIC "-//W3C//DTD SVG 1.1//EN" "http://www.w3.org/Graphics/SVG/1.1/DTD/svg11.dtd">
<svg version="1.1" id="Layer_1" xmlns="http://www.w3.org/2000/svg" xmlns:xlink="http://www.w3.org/1999/xlink" x="0px" y="0px"
	 width="40px" height="40px" viewBox="0 0 40 40" enable-background="new 0 0 40 40" xml:space="preserve">
<g>
	<path fill="#FFFFFF" d="M20,1.6c10.146,0,18.4,8.254,18.4,18.4c0,10.146-8.256,18.4-18.4,18.4C9.854,38.4,1.6,30.146,1.6,20
		C1.6,9.854,9.854,1.6,20,1.6 M20,0C8.954,0,0,8.954,0,20s8.954,20,20,20s20-8.954,20-20S31.046,0,20,0L20,0z"/>
</g>
<path fill="#FFFFFF" d="M20.217,23.357c-1.922-0.777-2.537-1.432-2.537-2.832c0-0.843,0.587-0.568,0.844-2.109
	c0.106-0.639,0.625-0.011,0.725-1.47c0-0.582-0.284-0.726-0.284-0.726s0.144-0.86,0.2-1.522c0.07-0.825-0.429-2.958-3.098-2.958
	c-2.667,0-3.168,2.133-3.098,2.958c0.056,0.662,0.2,1.522,0.2,1.522s-0.284,0.145-0.284,0.726c0.101,1.459,0.618,0.831,0.725,1.47
	c0.258,1.542,0.846,1.267,0.846,2.109c0,1.4-0.615,2.055-2.537,2.832c-0.586,0.234-1.638,0.602-1.638,1.484v3.418h13.501
	c0,0,0-2.023,0-2.563C23.783,24.893,22.146,24.133,20.217,23.357L20.217,23.357z M29.719,28.26c0,0-0.039-3.555-0.264-3.924
	c-0.334-0.549-1.113-0.926-2.559-1.51c-1.443-0.582-1.904-1.072-1.904-2.123c0-0.632,0.439-0.425,0.635-1.581
	c0.08-0.479,0.469-0.007,0.543-1.103c0-0.436-0.213-0.545-0.213-0.545s0.107-0.646,0.148-1.142c0.055-0.619-0.322-2.219-2.322-2.219
	s-2.375,1.599-2.324,2.219c0.045,0.497,0.15,1.142,0.15,1.142s-0.213,0.109-0.213,0.545c0.078,1.095,0.463,0.624,0.547,1.103
	c0.191,1.155,0.633,0.949,0.633,1.581c0,0.715-0.215,1.17-0.805,1.57c3.148,1.523,3.572,1.834,3.572,3.193v2.793H29.719
	L29.719,28.26z"/>
</svg>
