<?xml version="1.0" encoding="utf-8"?>
<!-- Generator: Adobe Illustrator 15.0.2, SVG Export Plug-In . SVG Version: 6.00 Build 0)  -->
<!DOCTYPE svg PUBLIC "-//W3C//DTD SVG 1.1//EN" "http://www.w3.org/Graphics/SVG/1.1/DTD/svg11.dtd">
<svg version="1.1" id="Layer_1" xmlns="http://www.w3.org/2000/svg" xmlns:xlink="http://www.w3.org/1999/xlink" x="0px" y="0px"
	 width="40px" height="40px" viewBox="0 0 40 40" enable-background="new 0 0 40 40" xml:space="preserve">
<g>
	<path fill="#FFFFFF" d="M20,1.6c10.146,0,18.4,8.254,18.4,18.4c0,10.146-8.256,18.4-18.4,18.4C9.854,38.4,1.6,30.146,1.6,20
		C1.6,9.854,9.854,1.6,20,1.6 M20,0C8.954,0,0,8.954,0,20s8.954,20,20,20s20-8.954,20-20S31.046,0,20,0L20,0z"/>
</g>
<path fill="#FFFFFF" d="M27.648,13.786H12.352c-0.768,0-1.391,0.622-1.391,1.391v9.646c0,0.768,0.623,1.391,1.391,1.391h15.296
	c0.768,0,1.391-0.623,1.391-1.391v-9.646C29.039,14.408,28.416,13.786,27.648,13.786z M26.17,23.477l-3.904-3.343L20,21.912
	l-2.212-1.735l-4.046,3.3l3.222-3.947l-3.83-3.006L20,19.913l6.865-3.39l-3.834,3.009L26.17,23.477z"/>
</svg>
