<?xml version="1.0" encoding="utf-8"?>
<!-- Generator: Adobe Illustrator 15.0.2, SVG Export Plug-In . SVG Version: 6.00 Build 0)  -->
<!DOCTYPE svg PUBLIC "-//W3C//DTD SVG 1.1//EN" "http://www.w3.org/Graphics/SVG/1.1/DTD/svg11.dtd">
<svg version="1.1" id="Layer_1" xmlns="http://www.w3.org/2000/svg" xmlns:xlink="http://www.w3.org/1999/xlink" x="0px" y="0px"
	 width="40px" height="40px" viewBox="0 0 40 40" enable-background="new 0 0 40 40" xml:space="preserve">
<g>
	<path fill="#FFFFFF" d="M20,1.6c10.146,0,18.4,8.254,18.4,18.4c0,10.146-8.256,18.4-18.4,18.4C9.854,38.4,1.6,30.146,1.6,20
		C1.6,9.854,9.854,1.6,20,1.6 M20,0C8.954,0,0,8.954,0,20s8.954,20,20,20s20-8.954,20-20S31.046,0,20,0L20,0z"/>
</g>
<path fill-rule="evenodd" clip-rule="evenodd" fill="#FFFFFF" d="M24.564,10.3c0.031,1.166-0.055,2.215-0.04,3.365
	c-1.216,0.103-2.843-0.385-3.005,0.601c-0.1,0.603-0.029,1.348-0.041,2.164c1.016,0,2.031,0,3.046,0
	c-0.226,1.178-0.396,2.409-0.601,3.605c-0.802,0-1.604,0-2.404,0c-0.094,3.165-0.014,6.504-0.041,9.736c-1.402,0-2.804,0-4.206,0
	c0-3.232,0-6.464,0-9.696c-0.536-0.092-1.241-0.015-1.843-0.04c0-1.202,0-2.403,0-3.605c0.601,0,1.202,0,1.803,0
	c0.112-0.926-0.01-1.771,0.041-2.524C17.503,10.461,20.555,10.017,24.564,10.3z"/>
</svg>
