<?xml version="1.0" encoding="utf-8"?>
<!-- Generator: Adobe Illustrator 15.0.2, SVG Export Plug-In . SVG Version: 6.00 Build 0)  -->
<!DOCTYPE svg PUBLIC "-//W3C//DTD SVG 1.1//EN" "http://www.w3.org/Graphics/SVG/1.1/DTD/svg11.dtd">
<svg version="1.1" id="Layer_1" xmlns="http://www.w3.org/2000/svg" xmlns:xlink="http://www.w3.org/1999/xlink" x="0px" y="0px"
	 width="40px" height="40px" viewBox="0 0 40 40" enable-background="new 0 0 40 40" xml:space="preserve">
<g>
	<path fill="#FFFFFF" d="M20,1.6c10.146,0,18.4,8.254,18.4,18.4c0,10.146-8.256,18.4-18.4,18.4C9.854,38.4,1.6,30.146,1.6,20
		C1.6,9.854,9.854,1.6,20,1.6 M20,0C8.954,0,0,8.954,0,20s8.954,20,20,20s20-8.954,20-20S31.046,0,20,0L20,0z"/>
</g>
<path fill="#FFFFFF" d="M22.87,23.092h-5.737v1.791h5.737V23.092L22.87,23.092z M22.87,15.05h-5.737v1.792h5.737V15.05L22.87,15.05z
	 M25.124,27.172H14.878V12.828h10.244v14.344H25.124z M25.124,10.78H14.878c-1.127,0-2.049,0.922-2.049,2.049v14.343
	c0,1.127,0.922,2.049,2.049,2.049h10.244c1.127,0,2.049-0.922,2.049-2.049V12.828C27.173,11.701,26.251,10.78,25.124,10.78
	L25.124,10.78z M17.156,20.889h5.736v-1.843h-5.736V20.889L17.156,20.889z"/>
</svg>
