<?xml version="1.0" encoding="utf-8"?>
<!-- Generator: Adobe Illustrator 15.0.2, SVG Export Plug-In . SVG Version: 6.00 Build 0)  -->
<!DOCTYPE svg PUBLIC "-//W3C//DTD SVG 1.1//EN" "http://www.w3.org/Graphics/SVG/1.1/DTD/svg11.dtd">
<svg version="1.1" id="Layer_1" xmlns="http://www.w3.org/2000/svg" xmlns:xlink="http://www.w3.org/1999/xlink" x="0px" y="0px"
	 width="40px" height="40px" viewBox="0 0 40 40" enable-background="new 0 0 40 40" xml:space="preserve">
<g>
	<path d="M20,1.6c10.146,0,18.4,8.254,18.4,18.4c0,10.146-8.256,18.4-18.4,18.4C9.854,38.4,1.6,30.146,1.6,20
		C1.6,9.854,9.854,1.6,20,1.6 M20,0C8.954,0,0,8.954,0,20s8.954,20,20,20s20-8.954,20-20S31.046,0,20,0L20,0z"/>
</g>
<path d="M27.589,15.308c-0.1-0.397-0.592-0.722-1.094-0.722h-6.15c-0.5,0-1.199-0.288-1.555-0.638l-0.536-0.533
	c-0.355-0.35-1.054-0.636-1.555-0.636H13.76c-0.5,0-0.955,0.404-1.009,0.898l-0.263,2.353h15.282L27.589,15.308L27.589,15.308z
	 M28.188,17.293H11.814c-0.83,0-0.872,0.405-0.828,0.898l0.743,8.133c0.045,0.492,0.163,0.897,0.993,0.897h14.556
	c0.846,0,0.948-0.405,0.991-0.897l0.742-8.133C29.06,17.698,29.019,17.293,28.188,17.293L28.188,17.293z"/>
</svg>
