<?xml version="1.0" encoding="utf-8"?>
<!-- Generator: Adobe Illustrator 15.0.2, SVG Export Plug-In . SVG Version: 6.00 Build 0)  -->
<!DOCTYPE svg PUBLIC "-//W3C//DTD SVG 1.1//EN" "http://www.w3.org/Graphics/SVG/1.1/DTD/svg11.dtd">
<svg version="1.1" id="Layer_1" xmlns="http://www.w3.org/2000/svg" xmlns:xlink="http://www.w3.org/1999/xlink" x="0px" y="0px"
	 width="40px" height="40px" viewBox="0 0 40 40" enable-background="new 0 0 40 40" xml:space="preserve">
<g>
	<path d="M20,1.6c10.146,0,18.4,8.254,18.4,18.4c0,10.146-8.256,18.4-18.4,18.4C9.854,38.4,1.6,30.146,1.6,20
		C1.6,9.854,9.854,1.6,20,1.6 M20,0C8.954,0,0,8.954,0,20s8.954,20,20,20s20-8.954,20-20S31.046,0,20,0L20,0z"/>
</g>
<path d="M26.61,16.641c-1.136,0-3.643,0.099-3.643,0.099l0.2-3.09c0-1.892-0.363-2.748-1.39-2.748c-1.272,0-0.76,1.548-1.171,2.888
	s-2.634,4.039-4.24,4.039h-0.325v7.916c2.271,0,2.306,1.979,4.358,1.979c1.31,0,4.179,0,4.179,0c2.063,0,4.327-1.826,4.327-3.41
	v-4.769C28.906,17.742,28.185,16.641,26.61,16.641L26.61,16.641z M11.094,18.733v6.06c0,0.586,0.285,0.951,0.882,0.951
	c0,0,2.003,0,3.076,0v-7.916h-3.103C11.311,17.828,11.094,18.314,11.094,18.733L11.094,18.733z"/>
</svg>
