<?xml version="1.0" encoding="utf-8"?>
<!-- Generator: Adobe Illustrator 15.0.2, SVG Export Plug-In . SVG Version: 6.00 Build 0)  -->
<!DOCTYPE svg PUBLIC "-//W3C//DTD SVG 1.1//EN" "http://www.w3.org/Graphics/SVG/1.1/DTD/svg11.dtd">
<svg version="1.1" id="Layer_1" xmlns="http://www.w3.org/2000/svg" xmlns:xlink="http://www.w3.org/1999/xlink" x="0px" y="0px"
	 width="40px" height="40px" viewBox="0 0 40 40" enable-background="new 0 0 40 40" xml:space="preserve">
<g>
	<path d="M20,1.6c10.146,0,18.4,8.254,18.4,18.4c0,10.146-8.255,18.4-18.4,18.4C9.854,38.4,1.6,30.146,1.6,20
		C1.6,9.854,9.854,1.6,20,1.6 M20,0C8.954,0,0,8.954,0,20s8.954,20,20,20s20-8.954,20-20S31.046,0,20,0L20,0z"/>
</g>
<path d="M27.267,23.634H12.734c-0.671,0-1.211,0.539-1.211,1.211c0,0.668,0.54,1.211,1.211,1.211h14.533
	c0.669,0,1.211-0.543,1.211-1.211C28.478,24.173,27.936,23.634,27.267,23.634L27.267,23.634z M12.734,16.366h14.533
	c0.669,0,1.211-0.543,1.211-1.211c0-0.67-0.542-1.211-1.211-1.211H12.734c-0.671,0-1.211,0.541-1.211,1.211
	C11.522,15.823,12.063,16.366,12.734,16.366L12.734,16.366z M27.267,18.788H12.734c-0.671,0-1.211,0.541-1.211,1.211
	s0.54,1.213,1.211,1.213h14.533c0.669,0,1.211-0.543,1.211-1.213S27.936,18.788,27.267,18.788L27.267,18.788z"/>
</svg>
