<?xml version="1.0" encoding="utf-8"?>
<!-- Generator: Adobe Illustrator 15.0.2, SVG Export Plug-In . SVG Version: 6.00 Build 0)  -->
<!DOCTYPE svg PUBLIC "-//W3C//DTD SVG 1.1//EN" "http://www.w3.org/Graphics/SVG/1.1/DTD/svg11.dtd">
<svg version="1.1" id="Layer_1" xmlns="http://www.w3.org/2000/svg" xmlns:xlink="http://www.w3.org/1999/xlink" x="0px" y="0px"
	 width="40px" height="40px" viewBox="0 0 40 40" enable-background="new 0 0 40 40" xml:space="preserve">
<g>
	<path d="M20,1.6c10.146,0,18.4,8.254,18.4,18.4c0,10.146-8.256,18.4-18.4,18.4C9.854,38.4,1.6,30.146,1.6,20
		C1.6,9.854,9.854,1.6,20,1.6 M20,0C8.954,0,0,8.954,0,20s8.954,20,20,20s20-8.954,20-20S31.046,0,20,0L20,0z"/>
</g>
<path d="M28.968,26.306l-3.471-2.176V13.694l3.471,2.174V26.306L28.968,26.306z M24.146,24.132l-3.472,2.175V15.868l3.472-2.174
	V24.132L24.146,24.132z M19.324,26.306l-3.472-2.176V13.694l3.472,2.174V26.306L19.324,26.306z M14.503,24.132l-3.472,2.175V15.868
	l3.472-2.174V24.132L14.503,24.132z M29.991,14.865l-4.822-3.02c-0.213-0.134-0.48-0.134-0.694,0L20,14.647l-4.476-2.802
	c-0.214-0.134-0.48-0.134-0.693,0l-4.822,3.02c-0.203,0.127-0.327,0.357-0.327,0.605v12.082c0,0.253,0.13,0.487,0.342,0.612
	s0.471,0.122,0.681-0.008l4.474-2.803l4.475,2.803c0.215,0.133,0.48,0.133,0.694,0l4.476-2.803l4.474,2.803
	c0.106,0.066,0.228,0.1,0.348,0.1c0.115,0,0.229-0.03,0.333-0.092c0.212-0.125,0.342-0.359,0.342-0.612V15.47
	C30.318,15.222,30.194,14.992,29.991,14.865L29.991,14.865z"/>
</svg>
