<?xml version="1.0" encoding="utf-8"?>
<!-- Generator: Adobe Illustrator 15.0.2, SVG Export Plug-In . SVG Version: 6.00 Build 0)  -->
<!DOCTYPE svg PUBLIC "-//W3C//DTD SVG 1.1//EN" "http://www.w3.org/Graphics/SVG/1.1/DTD/svg11.dtd">
<svg version="1.1" id="Layer_1" xmlns="http://www.w3.org/2000/svg" xmlns:xlink="http://www.w3.org/1999/xlink" x="0px" y="0px"
	 width="40px" height="40px" viewBox="0 0 40 40" enable-background="new 0 0 40 40" xml:space="preserve">
<g>
	<path d="M20,1.6c10.146,0,18.4,8.254,18.4,18.4c0,10.146-8.256,18.4-18.4,18.4C9.854,38.4,1.6,30.146,1.6,20
		C1.6,9.854,9.854,1.6,20,1.6 M20,0C8.954,0,0,8.954,0,20s8.954,20,20,20s20-8.954,20-20S31.046,0,20,0L20,0z"/>
</g>
<path d="M14.737,26.109L16.054,20h7.894l1.316,6.109H14.737L14.737,26.109z M28.176,17.745H11.824c-0.517,0-1.033,0.61-1.033,1.126
	v3.289c0,0.518,0.517,1.129,1.033,1.129h1.863l-0.829,4.699h14.283l-0.829-4.697h1.863c0.517,0,1.033-0.611,1.033-1.129v-3.29
	C29.209,18.355,28.692,17.745,28.176,17.745L28.176,17.745z M12.012,16.711h15.978c0.534,0,0.448-0.571,0.181-0.665
	c-0.269-0.093-3.237-1.215-3.753-1.215h-0.846v-2.819h-7.143v2.819h-0.846c-0.518,0-3.485,1.122-3.752,1.215
	S11.476,16.711,12.012,16.711L12.012,16.711z"/>
</svg>
