<?xml version="1.0" encoding="utf-8"?>
<!-- Generator: Adobe Illustrator 15.0.2, SVG Export Plug-In . SVG Version: 6.00 Build 0)  -->
<!DOCTYPE svg PUBLIC "-//W3C//DTD SVG 1.1//EN" "http://www.w3.org/Graphics/SVG/1.1/DTD/svg11.dtd">
<svg version="1.1" id="Layer_1" xmlns="http://www.w3.org/2000/svg" xmlns:xlink="http://www.w3.org/1999/xlink" x="0px" y="0px"
	 width="40px" height="40px" viewBox="0 0 40 40" enable-background="new 0 0 40 40" xml:space="preserve">
<g>
	<path fill="#FFFFFF" d="M20,1.6c10.146,0,18.4,8.254,18.4,18.4c0,10.146-8.256,18.4-18.4,18.4C9.854,38.4,1.6,30.146,1.6,20
		C1.6,9.854,9.854,1.6,20,1.6 M20,0C8.954,0,0,8.954,0,20s8.954,20,20,20s20-8.954,20-20S31.046,0,20,0L20,0z"/>
</g>
<g>
	<path fill="#FFFFFF" d="M26.387,17.064h-0.639c-0.234,0-0.426,0.192-0.426,0.425v2.938c0,1.42-1.121,3.831-5.323,3.831
		c-4.202,0-5.323-2.41-5.323-3.831V17.49c0-0.234-0.191-0.425-0.426-0.425h-0.639c-0.234,0-0.425,0.192-0.425,0.425v2.938
		c0,2.379,1.749,4.926,5.749,5.28v2.809h-2.769c-0.234,0-0.425,0.189-0.425,0.426v1.277c0,0.236,0.192,0.426,0.425,0.426h7.666
		c0.234,0,0.426-0.189,0.426-0.426v-1.277c0-0.236-0.191-0.426-0.426-0.426h-2.768v-2.809c4-0.352,5.75-2.9,5.75-5.28V17.49
		C26.813,17.257,26.621,17.064,26.387,17.064L26.387,17.064z"/>
	<path fill="#FFFFFF" d="M20,22.131c2.497,0,3.192-1.027,3.192-1.704v-3.363h-6.387v3.363C16.805,21.104,17.5,22.131,20,22.131
		L20,22.131z"/>
	<path fill="#FFFFFF" d="M23.191,11.059c0-0.68-0.695-1.704-3.192-1.704c-2.499,0-3.194,1.023-3.194,1.704v4.516h6.388v-4.516
		H23.191z"/>
</g>
</svg>
