<?xml version="1.0" encoding="utf-8"?>
<!-- Generator: Adobe Illustrator 15.0.2, SVG Export Plug-In . SVG Version: 6.00 Build 0)  -->
<!DOCTYPE svg PUBLIC "-//W3C//DTD SVG 1.1//EN" "http://www.w3.org/Graphics/SVG/1.1/DTD/svg11.dtd">
<svg version="1.1" id="Layer_1" xmlns="http://www.w3.org/2000/svg" xmlns:xlink="http://www.w3.org/1999/xlink" x="0px" y="0px"
	 width="40px" height="40px" viewBox="0 0 40 40" enable-background="new 0 0 40 40" xml:space="preserve">
<g>
	<path fill="#FFFFFF" d="M20,1.6c10.146,0,18.4,8.254,18.4,18.4c0,10.146-8.256,18.4-18.4,18.4C9.854,38.4,1.6,30.146,1.6,20
		C1.6,9.854,9.854,1.6,20,1.6 M20,0C8.954,0,0,8.954,0,20s8.954,20,20,20s20-8.954,20-20S31.046,0,20,0L20,0z"/>
</g>
<g>
	<path fill="#FFFFFF" d="M13.583,23.884l-3.514,3.556l2.46,2.492l3.514-3.56l1.931,1.955l0.527-6.937l-6.852,0.531L13.583,23.884
		L13.583,23.884z M29.932,12.56l-2.461-2.49l-3.515,3.559l-1.931-1.957l-0.526,6.939l6.853-0.535l-1.935-1.957L29.932,12.56
		L29.932,12.56z"/>
</g>
</svg>
