<?xml version="1.0" encoding="utf-8"?>
<!-- Generator: Adobe Illustrator 15.0.2, SVG Export Plug-In . SVG Version: 6.00 Build 0)  -->
<!DOCTYPE svg PUBLIC "-//W3C//DTD SVG 1.1//EN" "http://www.w3.org/Graphics/SVG/1.1/DTD/svg11.dtd">
<svg version="1.1" id="Layer_1" xmlns="http://www.w3.org/2000/svg" xmlns:xlink="http://www.w3.org/1999/xlink" x="0px" y="0px"
	 width="40px" height="40px" viewBox="0 0 40 40" enable-background="new 0 0 40 40" xml:space="preserve">
<g>
	<path fill="#FFFFFF" d="M20,1.6c10.146,0,18.4,8.254,18.4,18.4c0,10.146-8.256,18.4-18.4,18.4C9.854,38.4,1.6,30.146,1.6,20
		C1.6,9.854,9.854,1.6,20,1.6 M20,0C8.954,0,0,8.954,0,20s8.954,20,20,20s20-8.954,20-20S31.046,0,20,0L20,0z"/>
</g>
<g>
	<path fill="#FFFFFF" d="M24.238,11.523c-1.203,0-2.18,0.371-2.18,1.574v13.807c0,1.203,0.977,1.574,2.18,1.574
		c1.205,0,2.18-0.371,2.18-1.574V13.097C26.418,11.894,25.443,11.523,24.238,11.523L24.238,11.523z"/>
	<path fill="#FFFFFF" d="M15.761,11.523c-1.204,0-2.18,0.371-2.18,1.574v13.807c0,1.203,0.976,1.574,2.18,1.574
		c1.204,0,2.18-0.371,2.18-1.574V13.097C17.941,11.894,16.965,11.523,15.761,11.523L15.761,11.523z"/>
</g>
</svg>
