<?xml version="1.0" encoding="utf-8"?>
<!-- Generator: Adobe Illustrator 15.0.2, SVG Export Plug-In . SVG Version: 6.00 Build 0)  -->
<!DOCTYPE svg PUBLIC "-//W3C//DTD SVG 1.1//EN" "http://www.w3.org/Graphics/SVG/1.1/DTD/svg11.dtd">
<svg version="1.1" id="Layer_1" xmlns="http://www.w3.org/2000/svg" xmlns:xlink="http://www.w3.org/1999/xlink" x="0px" y="0px"
	 width="40px" height="40px" viewBox="0 0 40 40" enable-background="new 0 0 40 40" xml:space="preserve">
<g>
	<path fill="#FFFFFF" d="M20,1.6c10.146,0,18.4,8.254,18.4,18.4c0,10.146-8.256,18.4-18.4,18.4C9.854,38.4,1.6,30.146,1.6,20
		C1.6,9.854,9.854,1.6,20,1.6 M20,0C8.954,0,0,8.954,0,20s8.954,20,20,20s20-8.954,20-20S31.046,0,20,0L20,0z"/>
</g>
<path fill="#FFFFFF" d="M25.287,24.422c-2.448-0.893-3.232-1.646-3.232-3.26c0-0.969,0.747-0.652,1.076-2.426
	c0.137-0.735,0.798-0.013,0.925-1.691c0-0.669-0.362-0.836-0.362-0.836s0.186-0.991,0.257-1.753c0.089-0.95-0.548-3.403-3.95-3.403
	c-3.403,0-4.041,2.454-3.952,3.403c0.072,0.763,0.257,1.753,0.257,1.753s-0.362,0.166-0.362,0.836
	c0.127,1.679,0.787,0.955,0.924,1.691c0.329,1.773,1.076,1.457,1.076,2.426c0,1.613-0.783,2.367-3.232,3.26
	c-2.46,0.896-4.057,1.811-4.057,2.433c0,0.623,0,2.094,0,2.094H20h9.346c0,0,0-1.471,0-2.094
	C29.344,26.232,27.747,25.318,25.287,24.422L25.287,24.422z"/>
</svg>
