<?xml version="1.0" encoding="utf-8"?>
<!-- Generator: Adobe Illustrator 15.0.2, SVG Export Plug-In . SVG Version: 6.00 Build 0)  -->
<!DOCTYPE svg PUBLIC "-//W3C//DTD SVG 1.1//EN" "http://www.w3.org/Graphics/SVG/1.1/DTD/svg11.dtd">
<svg version="1.1" id="Layer_1" xmlns="http://www.w3.org/2000/svg" xmlns:xlink="http://www.w3.org/1999/xlink" x="0px" y="0px"
	 width="40px" height="40px" viewBox="0 0 40 40" enable-background="new 0 0 40 40" xml:space="preserve">
<g>
	<path d="M20,1.6c10.146,0,18.4,8.254,18.4,18.4c0,10.146-8.256,18.4-18.4,18.4C9.854,38.4,1.6,30.146,1.6,20
		C1.6,9.854,9.854,1.6,20,1.6 M20,0C8.954,0,0,8.954,0,20s8.954,20,20,20s20-8.954,20-20S31.046,0,20,0L20,0z"/>
</g>
<path d="M20,23.976c-2.196,0-3.975-1.781-3.975-3.976c0-2.196,1.778-3.976,3.975-3.976c2.195,0,3.975,1.779,3.975,3.976
	C23.975,22.194,22.195,23.976,20,23.976L20,23.976z M27.384,20c0-1.141,0.7-2.04,1.758-2.658c-0.189-0.637-0.441-1.246-0.753-1.818
	c-1.184,0.31-2.144-0.155-2.949-0.961c-0.808-0.807-1.053-1.767-0.744-2.951c-0.573-0.31-1.182-0.563-1.819-0.752
	c-0.619,1.058-1.735,1.758-2.875,1.758c-1.141,0-2.257-0.7-2.876-1.758c-0.637,0.189-1.247,0.442-1.82,0.752
	c0.31,1.185,0.063,2.145-0.745,2.951c-0.806,0.806-1.765,1.271-2.949,0.961c-0.312,0.573-0.563,1.182-0.753,1.818
	c1.057,0.618,1.759,1.518,1.759,2.658s-0.702,2.256-1.759,2.876c0.188,0.637,0.441,1.246,0.753,1.82
	c1.184-0.312,2.144-0.063,2.949,0.742c0.808,0.806,1.054,1.767,0.745,2.95c0.573,0.312,1.182,0.563,1.82,0.752
	c0.619-1.056,1.734-1.758,2.876-1.758s2.259,0.702,2.875,1.758c0.638-0.19,1.247-0.44,1.819-0.752
	c-0.309-1.184-0.063-2.145,0.744-2.95c0.806-0.806,1.766-1.271,2.949-0.959c0.312-0.574,0.563-1.186,0.753-1.82
	C28.084,22.039,27.384,21.141,27.384,20L27.384,20z"/>
</svg>
